<svg width="16" height="16" viewBox="0 0 16 16" fill="none" xmlns="http://www.w3.org/2000/svg">
<path d="M1.672 0V15.976H14.336V0H1.672ZM13.44 15.088H2.56V6.128H13.44V15.088ZM13.44 5.24H2.56V3.512H13.44V5.24ZM13.44 2.624H2.56V0.896H13.44V2.624Z" fill="#1F2429"/>
<path d="M6.45276 13.4644C6.37837 13.4124 6.31957 13.3396 6.34977 13.2213L6.92433 10.973H5.56442C5.47362 10.973 5.38303 10.9138 5.35263 10.825C5.32263 10.7364 5.32263 10.6476 5.41323 10.559L8.52584 7.57081C8.58623 7.51161 8.70722 7.48201 8.79782 7.51161C8.88861 7.54121 8.94901 7.6596 8.91881 7.7778L8.34425 10.0265H9.70416C9.79495 10.0265 9.88555 10.0855 9.91595 10.1744C9.94595 10.263 9.94595 10.3518 9.85535 10.4404L6.74274 13.4284C6.65475 13.5166 6.52716 13.5166 6.45276 13.4646V13.4644Z" fill="#646C73"/>
</svg>
