<svg width="15" height="12" viewBox="0 0 15 12" fill="none" xmlns="http://www.w3.org/2000/svg">
<path d="M13.2894 6.79398H1.71362C1.32702 6.79398 1.01362 6.48058 1.01362 6.09398V4.20544C1.01362 3.81885 1.32702 3.50544 1.71362 3.50544H13.2894C13.676 3.50544 13.9894 3.81885 13.9894 4.20544V6.09398C13.9894 6.48058 13.676 6.79398 13.2894 6.79398ZM13.2894 11.5864H1.71362C1.32702 11.5864 1.01362 11.273 1.01362 10.8864V8.9979C1.01362 8.6113 1.32702 8.2979 1.71362 8.2979H13.2894C13.676 8.2979 13.9894 8.6113 13.9894 8.9979V10.8864C13.9894 11.273 13.676 11.5864 13.2894 11.5864Z" stroke="#1F2429" stroke-width="0.6"/>
<path d="M12.6092 0H2.39076C2.01199 0 1.66573 0.214003 1.49633 0.552787L1.22361 1.09824C0.891156 1.76314 1.37465 2.54545 2.11803 2.54545H12.882C13.6253 2.54545 14.1088 1.76314 13.7764 1.09824L13.5037 0.552786C13.3343 0.214002 12.988 0 12.6092 0Z" fill="#646C73"/>
</svg>
