<svg width="17" height="16" viewBox="0 0 17 16" fill="none" xmlns="http://www.w3.org/2000/svg">
<g clip-path="url(#clip0)">
<path d="M13.8665 15.3813H2.31455C1.77055 15.3813 1.32788 14.9387 1.32788 14.3947V5.35468H14.8532V14.3947C14.8532 14.9387 14.4105 15.3813 13.8665 15.3813ZM2.39455 14.3147H13.7865V6.42134H2.39455V14.3147Z" fill="#1F2429"/>
<path d="M14.2079 6.42135H1.96789C0.933225 6.42135 0.122559 5.76535 0.122559 4.92801V4.78401C0.122559 4.22401 0.357225 3.68001 0.767892 3.29068L1.82389 2.29868C2.71456 1.48268 3.05056 1.20001 3.49323 1.20001H12.6719C12.9972 1.20001 13.4079 1.38668 14.3519 2.30401L15.4026 3.29068C15.8132 3.67468 16.0479 4.21868 16.0479 4.78401V4.92801C16.0532 5.76535 15.2426 6.42135 14.2079 6.42135ZM2.54923 3.08268L1.49856 4.06935C1.30123 4.25601 1.18923 4.51201 1.18923 4.78401V4.92801C1.18923 5.09868 1.49323 5.35468 1.96789 5.35468H14.2079C14.6826 5.35468 14.9866 5.10401 14.9866 4.92801V4.78401C14.9866 4.51735 14.8746 4.25601 14.6772 4.06935L13.6159 3.07201C12.9652 2.43735 12.7039 2.29335 12.6399 2.26668H3.51989C3.35989 2.34135 2.81589 2.83735 2.54923 3.08268Z" fill="#1F2429"/>
<path d="M6.45276 12.9644C6.37837 12.9124 6.31957 12.8396 6.34977 12.7213L6.92433 10.473H5.56442C5.47362 10.473 5.38303 10.4138 5.35263 10.325C5.32263 10.2364 5.32263 10.1476 5.41323 10.059L8.52584 7.07081C8.58623 7.01161 8.70722 6.98201 8.79782 7.01161C8.88861 7.04121 8.94901 7.1596 8.91881 7.2778L8.34425 9.52645H9.70416C9.79495 9.52645 9.88555 9.58546 9.91595 9.67445C9.94595 9.76304 9.94595 9.85183 9.85535 9.94043L6.74274 12.9284C6.65475 13.0166 6.52716 13.0166 6.45276 12.9646V12.9644Z" fill="#646C73"/>
</g>
<defs>
<clipPath id="clip0">
<rect width="16.0469" height="16" fill="white"/>
</clipPath>
</defs>
</svg>
