<svg width="16" height="16" viewBox="0 0 16 16" fill="none" xmlns="http://www.w3.org/2000/svg">
<path d="M14.2381 3.31193L8.942 0.25179C8.65471 0.0885623 8.32996 0.00274658 7.99954 0.00274658C7.66912 0.00274658 7.34436 0.0885623 7.05708 0.25179L1.76097 3.3043C1.47093 3.47172 1.23073 3.71339 1.06509 4.00444C0.899442 4.29549 0.814329 4.62542 0.818506 4.96029V11.0653C0.82067 11.3958 0.908672 11.7201 1.07389 12.0064C1.2391 12.2927 1.47586 12.5312 1.76097 12.6984L7.05708 15.7509C7.34436 15.9141 7.66912 16 7.99954 16C8.32996 16 8.65471 15.9141 8.942 15.7509L14.2381 12.6984C14.5248 12.5329 14.7628 12.2948 14.9282 12.0082C15.0937 11.7215 15.1807 11.3963 15.1806 11.0653V4.96029C15.1838 4.62664 15.0982 4.29813 14.9326 4.00847C14.767 3.71881 14.5273 3.47841 14.2381 3.31193ZM14.0359 11.0653C14.0325 11.1959 13.9956 11.3234 13.9288 11.4356C13.862 11.5479 13.7675 11.6411 13.6543 11.7063L8.35821 14.7588C8.24496 14.8217 8.11759 14.8546 7.98809 14.8546C7.85859 14.8546 7.73122 14.8217 7.61798 14.7588L2.34476 11.6987C2.23269 11.6341 2.13888 11.5421 2.07214 11.4313C2.00539 11.3205 1.96791 11.1946 1.9632 11.0653V4.96029C1.96662 4.82972 2.0035 4.70221 2.07031 4.58997C2.13712 4.47774 2.23162 4.38452 2.34476 4.31926L7.64087 1.26675C7.75717 1.20083 7.88875 1.16662 8.02243 1.16754C8.15612 1.16662 8.28769 1.20083 8.404 1.26675L13.7001 4.31926C13.8132 4.38452 13.9077 4.47774 13.9746 4.58997C14.0414 4.70221 14.0782 4.82972 14.0817 4.96029L14.0359 11.0653Z" fill="#1F2429"/>
<path d="M8.17877 5.52124C7.68824 5.52124 7.20873 5.6667 6.80087 5.93922C6.39301 6.21175 6.07512 6.5991 5.8874 7.05229C5.69968 7.50548 5.65057 8.00416 5.74627 8.48527C5.84196 8.96637 6.07818 9.4083 6.42503 9.75515C6.77189 10.102 7.21381 10.3382 7.69492 10.4339C8.17602 10.5296 8.6747 10.4805 9.12789 10.2928C9.58108 10.1051 9.96843 9.78718 10.241 9.37932C10.5135 8.97145 10.6589 8.49194 10.6589 8.00141C10.6579 7.34394 10.3963 6.71368 9.9314 6.24878C9.4665 5.78388 8.83625 5.52225 8.17877 5.52124ZM8.17877 9.33688C7.91464 9.33688 7.65644 9.25856 7.43683 9.11182C7.21721 8.96507 7.04604 8.7565 6.94496 8.51247C6.84388 8.26845 6.81743 7.99993 6.86896 7.74087C6.92049 7.48181 7.04768 7.24385 7.23445 7.05709C7.42122 6.87032 7.65918 6.74312 7.91824 6.69159C8.17729 6.64006 8.44581 6.66651 8.68984 6.76759C8.93386 6.86867 9.14244 7.03984 9.28918 7.25946C9.43592 7.47908 9.51425 7.73728 9.51425 8.00141C9.51425 8.3556 9.37355 8.69528 9.1231 8.94573C8.87265 9.19618 8.53296 9.33688 8.17877 9.33688Z" fill="#646C73"/>
</svg>
